<svg width="44" height="44" viewBox="0 0 44 44" fill="none" xmlns="http://www.w3.org/2000/svg">
<path d="M22 19.9C20.4 19.9 19.0417 19.3333 17.925 18.2C16.8083 17.0667 16.25 15.7167 16.25 14.15C16.25 12.55 16.8083 11.1917 17.925 10.075C19.0417 8.95833 20.4 8.4 22 8.4C23.6 8.4 24.9583 8.95833 26.075 10.075C27.1917 11.1917 27.75 12.55 27.75 14.15C27.75 15.7167 27.1917 17.0667 26.075 18.2C24.9583 19.3333 23.6 19.9 22 19.9ZM22 17.35C22.9 17.35 23.6667 17.0417 24.3 16.425C24.9333 15.8083 25.25 15.05 25.25 14.15C25.25 13.25 24.9333 12.4833 24.3 11.85C23.6667 11.2167 22.9 10.9 22 10.9C21.1 10.9 20.3333 11.2167 19.7 11.85C19.0667 12.4833 18.75 13.25 18.75 14.15C18.75 15.05 19.0667 15.8083 19.7 16.425C20.3333 17.0417 21.1 17.35 22 17.35ZM10.25 31.35V27.8C10.25 27 10.45 26.3083 10.85 25.725C11.25 25.1417 11.9333 24.5833 12.9 24.05C14.3333 23.2833 15.825 22.725 17.375 22.375C18.925 22.025 20.4667 21.85 22 21.85C23.5667 21.85 25.1167 22.0333 26.65 22.4C28.1833 22.7667 29.6833 23.3167 31.15 24.05C32.05 24.5833 32.7083 25.1417 33.125 25.725C33.5417 26.3083 33.75 27 33.75 27.8V31.35H10.25ZM22 24.4C20.4667 24.4 18.925 24.625 17.375 25.075C15.825 25.525 14.3167 26.2 12.85 27.1V28.85H31.15V27.1C29.6833 26.1667 28.175 25.4833 26.625 25.05C25.075 24.6167 23.5333 24.4 22 24.4ZM40.5 14.25C39.3333 11.6833 37.8583 9.50833 36.075 7.725C34.2917 5.94167 32.1833 4.51667 29.75 3.45L30.85 0.75C33.65 1.98333 36.1 3.625 38.2 5.675C40.3 7.725 41.9833 10.2167 43.25 13.15L40.5 14.25ZM3.5 14.25L0.75 13.15C1.98333 10.25 3.64167 7.76667 5.725 5.7C7.80833 3.63333 10.2833 1.98333 13.15 0.75L14.25 3.45C11.6833 4.55 9.51667 5.99167 7.75 7.775C5.98333 9.55833 4.56667 11.7167 3.5 14.25ZM13.1 43.25C10.3333 42.05 7.88333 40.4 5.75 38.3C3.61667 36.2 1.95 33.7167 0.75 30.85L3.5 29.7C4.56667 32.2333 5.98333 34.3833 7.75 36.15C9.51667 37.9167 11.7167 39.35 14.35 40.45L13.1 43.25ZM30.85 43.25L29.75 40.5C32.2167 39.4333 34.3667 37.975 36.2 36.125C38.0333 34.275 39.4667 32.1333 40.5 29.7L43.25 30.85C42.0167 33.65 40.3583 36.1083 38.275 38.225C36.1917 40.3417 33.7167 42.0167 30.85 43.25ZM22 28.85H31.15H12.85H22Z" fill="black"/>
</svg>
