<svg width="127" height="126" viewBox="0 0 127 126" fill="none" xmlns="http://www.w3.org/2000/svg">
  <g filter="url(#filter0_d_226_1205)">
  <circle cx="63.5" cy="62" r="60" fill="white"/>
  <circle cx="63.5" cy="62" r="59.5" stroke="#7DA453"/>
  </g>
  <ellipse cx="40" cy="56.5" rx="5.5" ry="13.5" fill="#7DA453"/>
  <path d="M88.5 47L78.5 56.5L88.5 66" stroke="#7DA453" stroke-width="2" stroke-linecap="round" stroke-linejoin="round"/>
  <path d="M50.5 90C50.5 90 55.9186 96 62 96C68.0814 96 73.5 90 73.5 90" stroke="#7DA453" stroke-width="2" stroke-linecap="round" stroke-linejoin="round"/>
  <path d="M87.3124 70.5069C87.3769 70.3328 87.6231 70.3328 87.6876 70.5069L88.5484 72.8334C88.5687 72.8881 88.6119 72.9313 88.6666 72.9516L90.9931 73.8124C91.1672 73.8769 91.1672 74.1231 90.9931 74.1876L88.6666 75.0484C88.6119 75.0687 88.5687 75.1119 88.5484 75.1666L87.6876 77.4931C87.6231 77.6672 87.3769 77.6672 87.3124 77.4931L86.4516 75.1666C86.4313 75.1119 86.3881 75.0687 86.3334 75.0484L84.0069 74.1876C83.8328 74.1231 83.8328 73.8769 84.0069 73.8124L86.3334 72.9516C86.3881 72.9313 86.4313 72.8881 86.4516 72.8334L87.3124 70.5069Z" fill="#7DA453"/>
  <defs>
  <filter id="filter0_d_226_1205" x="0.5" y="0" width="126" height="126" filterUnits="userSpaceOnUse" color-interpolation-filters="sRGB">
  <feFlood flood-opacity="0" result="BackgroundImageFix"/>
  <feColorMatrix in="SourceAlpha" type="matrix" values="0 0 0 0 0 0 0 0 0 0 0 0 0 0 0 0 0 0 127 0" result="hardAlpha"/>
  <feOffset dy="1"/>
  <feGaussianBlur stdDeviation="1.5"/>
  <feComposite in2="hardAlpha" operator="out"/>
  <feColorMatrix type="matrix" values="0 0 0 0 0 0 0 0 0 0 0 0 0 0 0 0 0 0 0.25 0"/>
  <feBlend mode="normal" in2="BackgroundImageFix" result="effect1_dropShadow_226_1205"/>
  <feBlend mode="normal" in="SourceGraphic" in2="effect1_dropShadow_226_1205" result="shape"/>
  </filter>
  </defs>
  </svg>
  