<svg width="37" height="36" viewBox="0 0 37 36" fill="none" xmlns="http://www.w3.org/2000/svg">
  <path d="M14.7 29.75C10.9333 29.75 7.69166 28.4167 4.97499 25.75C2.25833 23.0833 0.899994 19.9 0.899994 16.2V3.10001C0.899994 2.36668 1.19999 1.70001 1.79999 1.10001C2.39999 0.500012 3.06666 0.200012 3.79999 0.200012H29.85C31.65 0.200012 33.1667 0.808345 34.4 2.02501C35.6333 3.24168 36.25 4.73335 36.25 6.50001C36.25 8.26668 35.6333 9.76668 34.4 11C33.1667 12.2333 31.65 12.85 29.85 12.85H28.55V16.2C28.55 19.9 27.1917 23.0833 24.475 25.75C21.7583 28.4167 18.5 29.75 14.7 29.75ZM3.79999 9.90001H25.6V3.10001H3.79999V9.90001ZM14.75 26.85C17.7167 26.85 20.2667 25.8 22.4 23.7C24.5333 21.6 25.6 19.1 25.6 16.2V12.85H3.79999V16.2C3.79999 19.1 4.87499 21.6 7.02499 23.7C9.17499 25.8 11.75 26.85 14.75 26.85ZM28.55 9.90001H29.85C30.8167 9.90001 31.6417 9.57501 32.325 8.92501C33.0083 8.27501 33.35 7.46668 33.35 6.50001C33.35 5.56668 33.0083 4.76668 32.325 4.10001C31.6417 3.43335 30.8167 3.10001 29.85 3.10001H28.55V9.90001ZM0.899994 35.8V32.9H32.05V35.8H0.899994Z" fill="black"/>
  </svg>
  