<svg width="19" height="21" viewBox="0 0 19 21" fill="none" xmlns="http://www.w3.org/2000/svg">
<path d="M15.2 20.9746C14.4167 20.9746 13.75 20.6996 13.2 20.1496C12.65 19.5996 12.375 18.9329 12.375 18.1496C12.375 18.0329 12.3875 17.8954 12.4125 17.7371C12.4375 17.5788 12.475 17.4413 12.525 17.3246L4.875 12.8746C4.60833 13.1579 4.29583 13.3829 3.9375 13.5496C3.57917 13.7163 3.21667 13.7996 2.85 13.7996C2.06667 13.7996 1.39583 13.5246 0.8375 12.9746C0.279167 12.4246 0 11.7579 0 10.9746C0 10.1913 0.279167 9.52461 0.8375 8.97461C1.39583 8.42461 2.06667 8.14961 2.85 8.14961C3.21667 8.14961 3.57917 8.22461 3.9375 8.37461C4.29583 8.52461 4.6 8.74128 4.85 9.02461L12.525 4.59961C12.475 4.48294 12.4375 4.34961 12.4125 4.19961C12.3875 4.04961 12.375 3.91628 12.375 3.79961C12.375 3.01628 12.65 2.34961 13.2 1.79961C13.75 1.24961 14.4167 0.974609 15.2 0.974609C15.9667 0.974609 16.6292 1.24961 17.1875 1.79961C17.7458 2.34961 18.025 3.01628 18.025 3.79961C18.025 4.58294 17.7458 5.24544 17.1875 5.78711C16.6292 6.32878 15.9583 6.59961 15.175 6.59961C14.775 6.59961 14.4042 6.53711 14.0625 6.41211C13.7208 6.28711 13.4167 6.08294 13.15 5.79961L5.525 10.0996C5.55833 10.2329 5.5875 10.3829 5.6125 10.5496C5.6375 10.7163 5.65 10.8579 5.65 10.9746C5.65 11.1079 5.6375 11.2413 5.6125 11.3746C5.5875 11.5079 5.55833 11.6329 5.525 11.7496L13.15 16.1246C13.4167 15.8913 13.7167 15.7038 14.05 15.5621C14.3833 15.4204 14.7583 15.3496 15.175 15.3496C15.9583 15.3496 16.6292 15.6204 17.1875 16.1621C17.7458 16.7038 18.025 17.3663 18.025 18.1496C18.025 18.9329 17.7458 19.5996 17.1875 20.1496C16.6292 20.6996 15.9667 20.9746 15.2 20.9746ZM15.2 5.14961C15.5667 5.14961 15.8833 5.01628 16.15 4.74961C16.4167 4.48294 16.55 4.15794 16.55 3.77461C16.55 3.39128 16.4208 3.06628 16.1625 2.79961C15.9042 2.53294 15.5833 2.39961 15.2 2.39961C14.8167 2.39961 14.4917 2.53294 14.225 2.79961C13.9583 3.06628 13.825 3.38294 13.825 3.74961C13.825 4.13294 13.9583 4.46211 14.225 4.73711C14.4917 5.01211 14.8167 5.14961 15.2 5.14961ZM2.825 12.3246C3.20833 12.3246 3.53333 12.1913 3.8 11.9246C4.06667 11.6579 4.2 11.3413 4.2 10.9746C4.2 10.5913 4.06667 10.2663 3.8 9.99961C3.53333 9.73294 3.21667 9.59961 2.85 9.59961C2.46667 9.59961 2.1375 9.72878 1.8625 9.98711C1.5875 10.2454 1.45 10.5663 1.45 10.9496C1.45 11.3329 1.58333 11.6579 1.85 11.9246C2.11667 12.1913 2.44167 12.3246 2.825 12.3246ZM15.2 19.5246C15.5667 19.5246 15.8833 19.3913 16.15 19.1246C16.4167 18.8579 16.55 18.5329 16.55 18.1496C16.55 17.7663 16.4208 17.4413 16.1625 17.1746C15.9042 16.9079 15.5833 16.7746 15.2 16.7746C14.8167 16.7746 14.4917 16.9079 14.225 17.1746C13.9583 17.4413 13.825 17.7579 13.825 18.1246C13.825 18.5079 13.9583 18.8371 14.225 19.1121C14.4917 19.3871 14.8167 19.5246 15.2 19.5246Z" fill="#313131"/>
</svg>
