<svg width="20" height="19" viewBox="0 0 20 19" fill="none" xmlns="http://www.w3.org/2000/svg">
  <path d="M1.5501 15.0002V17.1002C1.5501 17.1835 1.58343 17.2585 1.6501 17.3252C1.71676 17.3919 1.79176 17.4252 1.8751 17.4252H18.1251C18.2084 17.4252 18.2834 17.3919 18.3501 17.3252C18.4168 17.2585 18.4501 17.1835 18.4501 17.1002V15.0002H1.5501ZM1.8751 4.1252H4.7001C4.66676 3.9752 4.6251 3.80436 4.5751 3.6127C4.5251 3.42103 4.5001 3.23353 4.5001 3.0502C4.5001 2.3002 4.76676 1.65853 5.3001 1.1252C5.83343 0.591862 6.4751 0.325195 7.2251 0.325195C7.69176 0.325195 8.12926 0.446029 8.5376 0.687695C8.94593 0.929362 9.2751 1.24186 9.5251 1.6252L10.0001 2.3252L10.4501 1.6252C10.7168 1.24186 11.0501 0.929362 11.4501 0.687695C11.8501 0.446029 12.2834 0.325195 12.7501 0.325195C13.5168 0.325195 14.1626 0.587695 14.6876 1.1127C15.2126 1.6377 15.4751 2.28353 15.4751 3.0502C15.4751 3.2002 15.4584 3.3627 15.4251 3.5377C15.3918 3.7127 15.3501 3.90853 15.3001 4.1252H18.1251C18.6084 4.1252 19.0251 4.3002 19.3751 4.6502C19.7251 5.0002 19.9001 5.40853 19.9001 5.8752V17.1002C19.9001 17.5835 19.7251 18.0002 19.3751 18.3502C19.0251 18.7002 18.6084 18.8752 18.1251 18.8752H1.8751C1.39176 18.8752 0.975098 18.7002 0.625098 18.3502C0.275098 18.0002 0.100098 17.5835 0.100098 17.1002V5.8752C0.100098 5.40853 0.275098 5.0002 0.625098 4.6502C0.975098 4.3002 1.39176 4.1252 1.8751 4.1252ZM1.5501 12.3502H18.4501V5.8752C18.4501 5.80853 18.4168 5.74186 18.3501 5.6752C18.2834 5.60853 18.2084 5.5752 18.1251 5.5752H12.2001L14.5501 8.9002L13.4001 9.7502L9.9751 5.0252L6.5251 9.7502L5.3751 8.9002L7.7501 5.5752H1.8751C1.79176 5.5752 1.71676 5.60853 1.6501 5.6752C1.58343 5.74186 1.5501 5.80853 1.5501 5.8752V12.3502ZM7.2251 4.3002C7.55843 4.3002 7.85427 4.17936 8.1126 3.9377C8.37093 3.69603 8.5001 3.4002 8.5001 3.0502C8.5001 2.7002 8.37093 2.4002 8.1126 2.1502C7.85427 1.9002 7.55843 1.7752 7.2251 1.7752C6.89176 1.7752 6.6001 1.90436 6.3501 2.1627C6.1001 2.42103 5.9751 2.71686 5.9751 3.0502C5.9751 3.4002 6.1001 3.69603 6.3501 3.9377C6.6001 4.17936 6.89176 4.3002 7.2251 4.3002ZM12.7251 4.3002C13.0918 4.3002 13.4001 4.17936 13.6501 3.9377C13.9001 3.69603 14.0251 3.4002 14.0251 3.0502C14.0251 2.7002 13.8959 2.4002 13.6376 2.1502C13.3793 1.9002 13.0834 1.7752 12.7501 1.7752C12.4001 1.7752 12.1043 1.90436 11.8626 2.1627C11.6209 2.42103 11.5001 2.71686 11.5001 3.0502C11.5001 3.4002 11.6209 3.69603 11.8626 3.9377C12.1043 4.17936 12.3918 4.3002 12.7251 4.3002Z" fill="#F7F9FB"/>
  </svg>
  