<svg width="40" height="38" viewBox="0 0 40 38" fill="none" xmlns="http://www.w3.org/2000/svg">
  <path d="M3.10001 30V34.2C3.10001 34.3667 3.16668 34.5167 3.30001 34.65C3.43335 34.7833 3.58335 34.85 3.75001 34.85H36.25C36.4167 34.85 36.5667 34.7833 36.7 34.65C36.8333 34.5167 36.9 34.3667 36.9 34.2V30H3.10001ZM3.75001 8.24999H9.40001C9.33335 7.94999 9.25001 7.60833 9.15001 7.22499C9.05001 6.84166 9.00001 6.46666 9.00001 6.09999C9.00001 4.59999 9.53335 3.31666 10.6 2.24999C11.6667 1.18333 12.95 0.649994 14.45 0.649994C15.3833 0.649994 16.2583 0.89166 17.075 1.37499C17.8917 1.85833 18.55 2.48333 19.05 3.24999L20 4.64999L20.9 3.24999C21.4333 2.48333 22.1 1.85833 22.9 1.37499C23.7 0.89166 24.5667 0.649994 25.5 0.649994C27.0333 0.649994 28.325 1.17499 29.375 2.22499C30.425 3.27499 30.95 4.56666 30.95 6.09999C30.95 6.39999 30.9167 6.72499 30.85 7.07499C30.7833 7.42499 30.7 7.81666 30.6 8.24999H36.25C37.2167 8.24999 38.05 8.59999 38.75 9.29999C39.45 9.99999 39.8 10.8167 39.8 11.75V34.2C39.8 35.1667 39.45 36 38.75 36.7C38.05 37.4 37.2167 37.75 36.25 37.75H3.75001C2.78335 37.75 1.95001 37.4 1.25001 36.7C0.550012 36 0.200012 35.1667 0.200012 34.2V11.75C0.200012 10.8167 0.550012 9.99999 1.25001 9.29999C1.95001 8.59999 2.78335 8.24999 3.75001 8.24999ZM3.10001 24.7H36.9V11.75C36.9 11.6167 36.8333 11.4833 36.7 11.35C36.5667 11.2167 36.4167 11.15 36.25 11.15H24.4L29.1 17.8L26.8 19.5L19.95 10.05L13.05 19.5L10.75 17.8L15.5 11.15H3.75001C3.58335 11.15 3.43335 11.2167 3.30001 11.35C3.16668 11.4833 3.10001 11.6167 3.10001 11.75V24.7ZM14.45 8.59999C15.1167 8.59999 15.7083 8.35833 16.225 7.87499C16.7417 7.39166 17 6.79999 17 6.09999C17 5.39999 16.7417 4.79999 16.225 4.29999C15.7083 3.79999 15.1167 3.54999 14.45 3.54999C13.7833 3.54999 13.2 3.80833 12.7 4.32499C12.2 4.84166 11.95 5.43333 11.95 6.09999C11.95 6.79999 12.2 7.39166 12.7 7.87499C13.2 8.35833 13.7833 8.59999 14.45 8.59999ZM25.45 8.59999C26.1833 8.59999 26.8 8.35833 27.3 7.87499C27.8 7.39166 28.05 6.79999 28.05 6.09999C28.05 5.39999 27.7917 4.79999 27.275 4.29999C26.7583 3.79999 26.1667 3.54999 25.5 3.54999C24.8 3.54999 24.2083 3.80833 23.725 4.32499C23.2417 4.84166 23 5.43333 23 6.09999C23 6.79999 23.2417 7.39166 23.725 7.87499C24.2083 8.35833 24.7833 8.59999 25.45 8.59999Z" fill="#313131"/>
  </svg>
  
  