<svg width="38" height="31" viewBox="0 0 38 31" fill="none" xmlns="http://www.w3.org/2000/svg">
  <path d="M19.2 30.8V27.3L29.9 16.6L33.4 20.1L22.7 30.8H19.2ZM0.900024 20.75V17.8H16.5V20.75H0.900024ZM35.35 18.15L31.85 14.65L33.3 13.2C33.5667 12.9333 33.8917 12.8 34.275 12.8C34.6584 12.8 35.0167 12.9333 35.35 13.2L36.8 14.65C37.0667 14.9833 37.2 15.3417 37.2 15.725C37.2 16.1083 37.0667 16.4333 36.8 16.7L35.35 18.15ZM0.900024 12.1V9.15H24.9V12.1H0.900024ZM0.900024 3.4V0.5H24.9V3.4H0.900024Z" fill="black"/>
  </svg>
  