<svg width="20" height="16" viewBox="0 0 20 16" fill="none" xmlns="http://www.w3.org/2000/svg">
  <path d="M10.1002 15.9V14.15L15.4502 8.8L17.2002 10.55L11.8502 15.9H10.1002ZM0.950195 10.875V9.4H8.7502V10.875H0.950195ZM18.1752 9.575L16.4252 7.825L17.1502 7.1C17.2835 6.96667 17.446 6.9 17.6377 6.9C17.8294 6.9 18.0085 6.96667 18.1752 7.1L18.9002 7.825C19.0335 7.99167 19.1002 8.17083 19.1002 8.3625C19.1002 8.55417 19.0335 8.71667 18.9002 8.85L18.1752 9.575ZM0.950195 6.55V5.075H12.9502V6.55H0.950195ZM0.950195 2.2V0.75H12.9502V2.2H0.950195Z" fill="black"/>
  </svg>
  