<svg width="24" height="24" viewBox="0 0 24 24" fill="none" xmlns="http://www.w3.org/2000/svg">
  <path d="M1.75758 18.9865V21.7035C1.75758 21.8113 1.79798 21.9084 1.87879 21.9946C1.9596 22.0809 2.05051 22.124 2.15152 22.124H21.8485C21.9495 22.124 22.0404 22.0809 22.1212 21.9946C22.202 21.9084 22.2424 21.8113 22.2424 21.7035V18.9865H1.75758ZM2.15152 4.91644H5.57576C5.53535 4.72237 5.48485 4.50135 5.42424 4.25337C5.36364 4.00539 5.33333 3.7628 5.33333 3.52561C5.33333 2.55526 5.65657 1.72507 6.30303 1.03504C6.9495 0.345013 7.72727 0 8.63636 0C9.20202 0 9.73232 0.156334 10.2273 0.469003C10.7222 0.781671 11.1212 1.18598 11.4242 1.68194L12 2.5876L12.5455 1.68194C12.8687 1.18598 13.2727 0.781671 13.7576 0.469003C14.2424 0.156334 14.7677 0 15.3333 0C16.2626 0 17.0455 0.339623 17.6818 1.01887C18.3182 1.69811 18.6364 2.53369 18.6364 3.52561C18.6364 3.71968 18.6162 3.92992 18.5758 4.15633C18.5354 4.38275 18.4848 4.63612 18.4242 4.91644H21.8485C22.4343 4.91644 22.9394 5.14286 23.3636 5.59569C23.7879 6.04852 24 6.57682 24 7.18059V21.7035C24 22.3288 23.7879 22.8679 23.3636 23.3208C22.9394 23.7736 22.4343 24 21.8485 24H2.15152C1.56566 24 1.06061 23.7736 0.636364 23.3208C0.212121 22.8679 0 22.3288 0 21.7035V7.18059C0 6.57682 0.212121 6.04852 0.636364 5.59569C1.06061 5.14286 1.56566 4.91644 2.15152 4.91644ZM1.75758 15.558H22.2424V7.18059C22.2424 7.09434 22.202 7.00809 22.1212 6.92183C22.0404 6.83558 21.9495 6.79245 21.8485 6.79245H14.6667L17.5152 11.0943L16.1212 12.1941L11.9697 6.08086L7.78788 12.1941L6.39394 11.0943L9.27273 6.79245H2.15152C2.05051 6.79245 1.9596 6.83558 1.87879 6.92183C1.79798 7.00809 1.75758 7.09434 1.75758 7.18059V15.558ZM8.63636 5.14286C9.04041 5.14286 9.39899 4.98652 9.71212 4.67385C10.0253 4.36119 10.1818 3.97844 10.1818 3.52561C10.1818 3.07278 10.0253 2.68464 9.71212 2.36119C9.39899 2.03774 9.04041 1.87601 8.63636 1.87601C8.23232 1.87601 7.87879 2.04313 7.57576 2.37736C7.27273 2.71159 7.12121 3.09434 7.12121 3.52561C7.12121 3.97844 7.27273 4.36119 7.57576 4.67385C7.87879 4.98652 8.23232 5.14286 8.63636 5.14286ZM15.303 5.14286C15.7475 5.14286 16.1212 4.98652 16.4242 4.67385C16.7273 4.36119 16.8788 3.97844 16.8788 3.52561C16.8788 3.07278 16.7222 2.68464 16.4091 2.36119C16.096 2.03774 15.7374 1.87601 15.3333 1.87601C14.9091 1.87601 14.5505 2.04313 14.2576 2.37736C13.9646 2.71159 13.8182 3.09434 13.8182 3.52561C13.8182 3.97844 13.9646 4.36119 14.2576 4.67385C14.5505 4.98652 14.899 5.14286 15.303 5.14286Z" fill="#7DA453"/>
  </svg>
  