<svg width="24" height="31" viewBox="0 0 24 31" fill="none" xmlns="http://www.w3.org/2000/svg">
  <path d="M0.0374756 25.35V23.1375H3.18748V12C3.18748 9.92505 3.81248 8.07505 5.06248 6.45005C6.31248 4.82505 7.94998 3.78755 9.97497 3.33755V2.25005C9.97497 1.67505 10.1687 1.2063 10.5562 0.843799C10.9437 0.481299 11.425 0.300049 12 0.300049C12.575 0.300049 13.0562 0.481299 13.4437 0.843799C13.8312 1.2063 14.025 1.67505 14.025 2.25005V3.33755C16.05 3.78755 17.7 4.82505 18.975 6.45005C20.25 8.07505 20.8875 9.92505 20.8875 12V23.1375H23.9625V25.35H0.0374756ZM12 30.1875C11.225 30.1875 10.5437 29.9063 9.95623 29.3438C9.36872 28.7813 9.07498 28.0875 9.07498 27.2625H14.925C14.925 28.0875 14.6437 28.7813 14.0812 29.3438C13.5187 29.9063 12.825 30.1875 12 30.1875ZM5.36248 23.1375H18.675V12C18.675 10.15 18.0312 8.57505 16.7437 7.27505C15.4562 5.97505 13.8875 5.32505 12.0375 5.32505C10.1625 5.32505 8.58123 5.97505 7.29373 7.27505C6.00623 8.57505 5.36247 10.15 5.36248 12V23.1375Z" fill="#8D8D8D"/>
  </svg>
  